HIERARCHY
ROOT Hips
{
	OFFSET 0.000000 0.000000 0.000000
	CHANNELS 6 Xposition Yposition Zposition Xrotation Yrotation Zrotation
	JOINT LeftUpLeg_virtual
	{
		OFFSET 0.000000 0.000000 0.000000
		CHANNELS 3 Xrotation Yrotation Zrotation
		JOINT LeftUpLeg
		{
			OFFSET 15.427100 -6.655098 0.678600
			CHANNELS 3 Xrotation Yrotation Zrotation
			JOINT LeftLeg
			{
				OFFSET 4.081073 -39.591068 13.024000
				CHANNELS 3 Xrotation Yrotation Zrotation
				JOINT LeftFoot
				{
					OFFSET -4.081074 -37.707932 -15.979700
					CHANNELS 3 Xrotation Yrotation Zrotation
					JOINT LeftToeBase
					{
						OFFSET 5.346399 -15.068900 20.645000
						CHANNELS 3 Xrotation Yrotation Zrotation
						JOINT LeftToe_End
						{
							OFFSET 2.754700 0.931300 11.300900
							CHANNELS 3 Xrotation Yrotation Zrotation
							End Site
							{
								OFFSET 0 0 0
							}
						}
					}
				}
			}
		}
	}
	JOINT RightUpLeg_virtual
	{
		OFFSET 0.000000 0.000000 0.000000
		CHANNELS 3 Xrotation Yrotation Zrotation
		JOINT RightUpLeg
		{
			OFFSET -15.569500 -6.655098 0.678600
			CHANNELS 3 Xrotation Yrotation Zrotation
			JOINT RightLeg
			{
				OFFSET -4.081825 -39.591045 13.023800
				CHANNELS 3 Xrotation Yrotation Zrotation
				JOINT RightFoot
				{
					OFFSET 4.081824 -37.707954 -15.979600
					CHANNELS 3 Xrotation Yrotation Zrotation
					JOINT RightToeBase
					{
						OFFSET -5.346400 -15.068900 20.645000
						CHANNELS 3 Xrotation Yrotation Zrotation
						JOINT RightToe_End
						{
							OFFSET -2.754700 0.931300 11.300900
							CHANNELS 3 Xrotation Yrotation Zrotation
							End Site
							{
								OFFSET 0 0 0
							}
						}
					}
				}
			}
		}
	}
	JOINT Spine_virtual
	{
		OFFSET 0.000000 0.000000 0.000000
		CHANNELS 3 Xrotation Yrotation Zrotation
		JOINT Spine
		{
			OFFSET -0.279200 12.230698 -2.892100
			CHANNELS 3 Xrotation Yrotation Zrotation
			JOINT Spine1
			{
				OFFSET -0.232667 10.192268 -1.242267
				CHANNELS 3 Xrotation Yrotation Zrotation
				JOINT Spine1_split
				{
					OFFSET -0.232667 10.192268 -1.242267
					CHANNELS 3 Xrotation Yrotation Zrotation
					JOINT Spine2
					{
						OFFSET -0.232667 10.192268 -1.242267
						CHANNELS 3 Xrotation Yrotation Zrotation
						JOINT Neck_virtual
						{
							OFFSET 0.000000 0.000000 0.000000
							CHANNELS 3 Xrotation Yrotation Zrotation
							JOINT Neck
							{
								OFFSET -0.418800 17.814194 8.416900
								CHANNELS 3 Xrotation Yrotation Zrotation
								JOINT Head
								{
									OFFSET 0.000000 7.031097 3.806800
									CHANNELS 3 Xrotation Yrotation Zrotation
									JOINT HeadTop_End
									{
										OFFSET 0.000000 24.646606 12.978600
										CHANNELS 3 Xrotation Yrotation Zrotation
										End Site
										{
											OFFSET 0 0 0
										}
									}
								}
							}
						}
						JOINT LeftShoulder_virtual
						{
							OFFSET 0.000000 0.000000 0.000000
							CHANNELS 3 Xrotation Yrotation Zrotation
							JOINT LeftShoulder
							{
								OFFSET 8.476499 7.247704 -3.868750
								CHANNELS 3 Xrotation Yrotation Zrotation
								JOINT LeftShoulder_split
								{
									OFFSET 8.476499 7.247704 -3.868750
									CHANNELS 3 Xrotation Yrotation Zrotation
									JOINT LeftArm
									{
										OFFSET 9.308998 -2.777710 0.208600
										CHANNELS 3 Xrotation Yrotation Zrotation
										JOINT LeftForeArm
										{
											OFFSET 29.972298 0.000000 0.000000
											CHANNELS 3 Xrotation Yrotation Zrotation
											JOINT LeftHand
											{
												OFFSET 26.026505 0.000000 0.000000
												CHANNELS 3 Xrotation Yrotation Zrotation
												End Site
												{
													OFFSET 0 0 0
												}
											}
										}
									}
								}
							}
						}
						JOINT RightShoulder_virtual
						{
							OFFSET 0.000000 0.000000 0.000000
							CHANNELS 3 Xrotation Yrotation Zrotation
							JOINT RightShoulder
							{
								OFFSET -7.570500 7.247704 -3.868750
								CHANNELS 3 Xrotation Yrotation Zrotation
								JOINT RightShoulder_split
								{
									OFFSET -7.570500 7.247704 -3.868750
									CHANNELS 3 Xrotation Yrotation Zrotation
									JOINT RightArm
									{
										OFFSET -9.308998 -2.777710 0.208500
										CHANNELS 3 Xrotation Yrotation Zrotation
										JOINT RightForeArm
										{
											OFFSET -29.972300 0.000000 0.000000
											CHANNELS 3 Xrotation Yrotation Zrotation
											JOINT RightHand
											{
												OFFSET -26.026505 0.000000 0.000000
												CHANNELS 3 Xrotation Yrotation Zrotation
												End Site
												{
													OFFSET 0 0 0
												}
											}
										}
									}
								}
							}
						}
					}
				}
			}
		}
	}
}
MOTION
Frames: 4
Frame Time: 0.03333333
0.068960 40.868553 -10.458965 0.000000 0.000000 0.000000 68.782682 -1.571735 1.221833 2.982636 13.038552 11.134749 12.334225 9.647962 3.640079 -47.046930 10.387902 -9.174546 -40.863471 1.100391 -7.263784 0.000000 0.000000 0.000000 70.781278 -5.377902 2.006721 1.777561 -5.263961 -9.845227 12.102781 3.917787 2.657845 -24.684129 -0.441972 11.830064 -58.752932 -2.414267 6.918963 0.000000 0.000000 0.000000 73.595643 -2.718223 0.642445 -2.169708 2.067424 -0.848290 1.634397 1.355340 0.174653 0.742574 -0.747173 0.890554 0.000000 0.000000 0.000000 1.870156 -0.368822 0.230959 -9.638773 0.623275 3.134779 9.452068 9.276708 -5.537430 0.000000 0.000000 0.000000 2.063492 -0.628283 1.065932 2.686114 1.764550 1.618673 0.059435 1.265378 -2.781535 -43.210553 -56.952675 -49.119213 1.040277 -20.556194 -0.117484 0.000000 0.000000 0.000000 1.266264 -0.348165 1.128740 0.160120 5.021485 15.260772 4.461863 8.616308 -2.676927 -55.665659 56.830688 52.210263 -0.894585 20.429494 0.438652 0.000000 0.000000 0.000000 
-0.161970 40.917137 -10.581409 0.000000 0.000000 0.000000 68.769302 -1.443721 1.211266 3.184558 13.369482 11.168567 12.485467 9.715990 3.494919 -46.993296 10.050577 -9.128199 -41.512790 0.962074 -6.899802 0.000000 0.000000 0.000000 70.842367 -5.643939 2.258054 1.562889 -5.131577 -9.838577 12.222503 3.946391 2.733457 -24.906198 -0.533795 11.839949 -57.982617 -2.333821 6.906911 0.000000 0.000000 0.000000 73.949727 -2.670125 0.790119 -2.057767 2.088522 -0.893796 1.740255 1.351806 0.169807 0.801259 -1.061964 0.875404 0.000000 0.000000 0.000000 1.832473 -0.370246 0.285457 -9.965525 0.475157 3.066853 9.420335 9.229689 -5.902620 0.000000 0.000000 0.000000 2.134169 -0.601167 1.065408 2.666605 1.879527 1.669203 0.608934 1.531969 -2.379113 -43.747775 -56.937065 -49.595045 1.151747 -19.903282 -0.239268 0.000000 0.000000 0.000000 1.411439 -0.287542 1.180743 0.100437 5.288745 15.184069 4.480073 8.433153 -2.859496 -55.391130 56.067431 51.424832 -0.856286 20.772677 0.622705 0.000000 0.000000 0.000000 
-0.354993 41.007614 -10.674709 0.000000 0.000000 0.000000 68.793966 -1.523676 1.342471 3.394769 13.586758 11.225666 12.432754 9.843621 3.361736 -46.693769 9.559891 -9.089795 -42.610118 0.804712 -6.396024 0.000000 0.000000 0.000000 70.987611 -5.916871 2.523427 1.276556 -5.113250 -9.709268 12.125847 3.926352 2.777687 -24.900126 -0.736276 12.095269 -58.035202 -2.275545 6.805574 0.000000 0.000000 0.000000 74.159305 -2.571125 0.933486 -1.828094 2.041919 -0.999875 1.881065 1.341777 0.181124 0.893999 -1.321230 0.842467 0.000000 0.000000 0.000000 1.786997 -0.397590 0.375042 -10.041783 0.402073 2.932609 9.250990 9.044971 -6.076092 0.000000 0.000000 0.000000 2.256795 -0.620114 1.069890 2.666842 1.915793 2.041040 1.159424 1.837099 -1.970300 -44.043563 -57.265802 -50.073725 1.236667 -19.731185 -0.380621 0.000000 0.000000 0.000000 1.627556 -0.242785 1.257519 -0.066841 5.891028 15.047928 4.606005 8.244906 -2.929385 -53.207778 54.654774 48.754922 -0.815146 22.780388 0.792318 0.000000 0.000000 0.000000 
-0.511174 41.131805 -10.745140 0.000000 0.000000 0.000000 68.795475 -1.711207 1.537858 3.654331 13.759113 11.189259 11.998300 10.130065 3.276469 -46.439030 9.006068 -8.705956 -43.452994 0.667120 -5.931145 0.000000 0.000000 0.000000 71.151788 -6.128999 2.772599 1.104274 -5.223995 -9.408288 11.791437 3.799293 2.745712 -24.866497 -1.051027 12.429204 -58.603235 -2.252514 6.667760 0.000000 0.000000 0.000000 74.219417 -2.560651 1.171155 -1.526081 1.932079 -1.153296 2.028893 1.305914 0.197912 0.904398 -1.458658 0.859586 0.000000 0.000000 0.000000 1.766470 -0.459057 0.488046 -9.862546 0.420548 2.747167 8.890410 8.730442 -6.056728 0.000000 0.000000 0.000000 2.407905 -0.676293 1.086691 2.676638 1.976861 2.761677 1.700131 2.021293 -1.632285 -44.252973 -57.766434 -50.556046 1.328251 -20.245577 -0.517912 0.000000 0.000000 0.000000 1.877422 -0.224395 1.350193 -0.353595 6.882086 14.838992 4.743956 8.181856 -2.932432 -49.749906 52.764420 44.942768 -0.766417 26.015110 0.940230 0.000000 0.000000 0.000000 
